<?xml version="1.0" encoding="UTF-8"?>
<svg id="Layer_2" data-name="Layer 2" xmlns="http://www.w3.org/2000/svg" viewBox="0 0 89.92 83.39">
  <defs>
    <style>
      .cls-1 {
        fill: #f4f7fc;
      }

      .cls-2 {
        fill: #3b4549;
      }

      .cls-3 {
        fill: #fdfdfd;
      }
    </style>
  </defs>
  <g id="Layer_1-2" data-name="Layer 1">
    <g>
      <path class="cls-1" d="M0,15.34c3.31,1.89,6.64,3.79,10.11,5.39,1.36.63,11.22,4.76,11.84,4.62.24-.05.4-.41.48-.63.59-1.78.78-4.16,1.43-6.15,1.45-4.44,4.12-9.27,6.74-13.11.44-.64,2.92-4.18,3.38-4.13l54.59,26.53-.17.82c-9.19,17.08-18.59,34.16-26.79,51.74-.43.92-.94,1.99-1.15,2.98H0V15.34ZM6.75,33.69c-1.41,1.34.34,2.48,1.64,2.82,2.97.78,6.34.44,9.1-.89.85-.41,2.44-1.2,2.37-2.3-.18-2.74-4.06.03-5.4.38-1.17.31-2.4.44-3.61.35-1.06-.08-3.34-1.08-4.1-.36ZM46.03,45.52c-1.06,1.3,1.55,5.09,2.49,6.19,1.23,1.43,4,3.6,5.86,3.97,1.48.29,2.7-1.58,1.03-2.6-2.64-1.61-4.04-1.59-5.84-4.65-.59-1.01-1.8-5.04-3.55-2.9ZM11.54,48.18c-3.52.79-4.69,9.15,0,7.59,3.32-1.1,4.25-8.55,0-7.59ZM40.53,61.15c-3.4.07-5.45,7.26-1.99,7.92,3.74.71,6.18-8,1.99-7.92ZM13.19,65.95c.24.39,2.58.2,3.18.28,3.26.42,6.24,1.45,8.91,3.36.79.56,3.61,3.47,3.87,3.51.56.1.89-.76.64-1.31-.64-1.41-4.12-3.95-5.54-4.73-2.75-1.51-7.18-2.81-10.31-2.43-.73.09-1.11.73-.74,1.32Z"/>
      <path class="cls-3" d="M0,12.66L31.68,2.06c-3.6,5.02-6.98,10.4-8.86,16.35-.53,1.68-.8,3.35-1.19,5.06-.06.25-.08.42-.33.57-7.28-2.29-13.71-5.59-20.25-9.42-.34-.2-.59-.47-1.05-.4v-1.56Z"/>
      <path class="cls-2" d="M89.91,28.28c-10.21,17.99-19.44,36.54-28.56,55.11h-.89c.2-.99.72-2.06,1.15-2.98,8.2-17.59,17.6-34.67,26.79-51.74l.17-.82L33.98,1.32c-.46-.04-2.94,3.5-3.38,4.13-2.62,3.84-5.29,8.67-6.74,13.11-.65,1.99-.84,4.37-1.43,6.15-.07.23-.24.58-.48.63-.62.14-10.48-3.99-11.84-4.62-3.47-1.6-6.8-3.51-10.11-5.39v-1.12c.47-.07.71.19,1.05.4,6.54,3.83,12.97,7.13,20.25,9.42.25-.15.27-.32.33-.57.39-1.7.66-3.38,1.19-5.06,1.88-5.95,5.26-11.32,8.86-16.35L0,12.66v-1.12L33.77,0c18.7,9.16,37.62,18.09,56.11,27.54.1.25-.01.61.04.73Z"/>
      <path class="cls-2" d="M6.75,33.69c.76-.72,3.03.28,4.1.36,1.21.09,2.44-.04,3.61-.35,1.34-.35,5.22-3.13,5.4-.38.07,1.1-1.52,1.89-2.37,2.3-2.76,1.34-6.12,1.67-9.1.89-1.3-.34-3.05-1.48-1.64-2.82Z"/>
      <path class="cls-2" d="M46.03,45.52c1.74-2.14,2.96,1.9,3.55,2.9,1.79,3.06,3.2,3.04,5.84,4.65,1.67,1.02.45,2.89-1.03,2.6-1.86-.37-4.63-2.54-5.86-3.97-.94-1.09-3.55-4.89-2.49-6.19Z"/>
      <path class="cls-2" d="M11.54,48.18c4.25-.96,3.33,6.49,0,7.59-4.7,1.56-3.52-6.8,0-7.59Z"/>
      <path class="cls-2" d="M40.53,61.15c4.19-.08,1.75,8.63-1.99,7.92-3.46-.66-1.41-7.85,1.99-7.92Z"/>
      <path class="cls-2" d="M13.19,65.95c-.37-.59,0-1.23.74-1.32,3.13-.38,7.56.92,10.31,2.43,1.42.78,4.9,3.32,5.54,4.73.25.55-.08,1.41-.64,1.31-.26-.05-3.08-2.95-3.87-3.51-2.68-1.91-5.65-2.94-8.91-3.36-.6-.08-2.94.1-3.18-.28Z"/>
    </g>
  </g>
</svg>