<svg width="72" height="72" viewBox="0 0 72 72" fill="none" xmlns="http://www.w3.org/2000/svg">
<path id="Vector" d="M62.4499 27.5661H10.1109C9.05167 27.5672 8.00643 27.8078 7.05328 28.2698C6.10013 28.7318 5.26373 29.4032 4.60659 30.2339C3.95219 31.0623 3.49491 32.0288 3.26938 33.0601C3.04386 34.0914 3.05602 35.1605 3.30493 36.1864L8.91678 59.1644C9.7293 62.1249 11.4934 64.7358 13.937 66.5943C16.3825 68.4553 19.3767 69.463 22.4569 69.463H50.0967C53.1769 69.463 56.1711 68.4553 58.6166 66.5943C61.0602 64.7358 62.8243 62.1249 63.6368 59.1644L69.2487 36.19C69.6264 34.6411 69.4607 33.0095 68.7792 31.5682C68.0977 30.1269 66.9418 28.9634 65.505 28.2725C64.5491 27.8135 63.5032 27.5722 62.4427 27.5661M22.249 41.5293V55.4961M36.2804 41.5293V55.4961M50.3118 41.5293V55.4961M60.8363 27.5661C60.835 24.3533 60.1989 21.1725 58.9645 18.2064C57.73 15.2402 55.9216 12.5473 53.6431 10.2823C49.0298 5.69425 42.7867 3.12071 36.2804 3.12501C29.774 3.12071 23.531 5.69425 18.9177 10.2823C16.6399 12.5476 14.8321 15.2407 13.5982 18.2068C12.3644 21.1729 11.7289 24.3536 11.7281 27.5661" stroke="#1F1D1C" stroke-width="4.47222" stroke-linecap="round" stroke-linejoin="round"/>
</svg>
