<svg width="46" height="46" viewBox="0 0 46 46" fill="none" xmlns="http://www.w3.org/2000/svg">
<g id="Bike">
<circle id="Ellipse 2" cx="22.5909" cy="22.8617" r="22.5455" fill="#1F1D1C"/>
<g id="Group">
<path id="Vector" d="M13.9908 32.9163C17.1238 32.9163 19.6636 30.3765 19.6636 27.2435C19.6636 24.1106 17.1238 21.5708 13.9908 21.5708C10.8579 21.5708 8.31812 24.1106 8.31812 27.2435C8.31812 30.3765 10.8579 32.9163 13.9908 32.9163Z" stroke="white" stroke-width="2" stroke-linecap="round" stroke-linejoin="round"/>
<path id="Vector_2" d="M31.0092 32.9163C34.1421 32.9163 36.6819 30.3765 36.6819 27.2435C36.6819 24.1106 34.1421 21.5708 31.0092 21.5708C27.8762 21.5708 25.3364 24.1106 25.3364 27.2435C25.3364 30.3765 27.8762 32.9163 31.0092 32.9163Z" stroke="white" stroke-width="2" stroke-linecap="round" stroke-linejoin="round"/>
<path id="Vector_3" d="M13.5 27.1708L16.3364 17.2436H26.9727M13.5 12.989H17.7545M30.5182 27.1708L26.2636 12.989H31.9364H32.6455C33.2097 12.989 33.7507 13.2131 34.1497 13.6121C34.5486 14.011 34.7727 14.5521 34.7727 15.1163C34.7727 15.6805 34.5486 16.2216 34.1497 16.6205C33.7507 17.0194 33.2097 17.2436 32.6455 17.2436H31.9364" stroke="white" stroke-width="2" stroke-linecap="round" stroke-linejoin="round"/>
</g>
</g>
</svg>
