<svg width="46" height="46" viewBox="0 0 46 46" fill="none" xmlns="http://www.w3.org/2000/svg">
<g id="Boats">
<g id="Group 4">
<circle id="Ellipse 2" cx="22.7727" cy="22.8617" r="22.5455" fill="#1F1D1C"/>
</g>
<g id="Group 6">
<path id="Vector" d="M32.7107 30.9107C31.6718 30.8163 30.6329 31.1941 29.7829 31.9496C28.744 32.9885 27.044 32.9885 25.9107 31.9496C24.9662 31.2885 23.9273 30.9107 22.794 30.9107C21.6607 30.8163 20.5273 31.1941 19.6773 31.9496C19.1107 32.4218 18.4495 32.7052 17.694 32.7052C16.9384 32.7052 16.2773 32.4218 15.7107 31.9496C14.7662 31.1941 13.6329 30.8163 12.4995 30.8163C11.3662 30.8163 10.2329 31.1941 9.28843 31.9496C8.72177 32.4218 7.87177 32.7052 7.11621 32.7052V34.5941C8.34399 34.6885 9.57177 34.3107 10.5162 33.4607C11.0829 32.9885 11.9329 32.7052 12.6884 32.7052C13.3495 32.7052 14.1051 32.9885 14.6718 33.4607C16.3718 34.9718 19.0162 34.9718 20.8107 33.4607C21.3773 32.9885 22.0384 32.7052 22.794 32.7052C23.4551 32.7052 24.1162 32.9885 24.6829 33.4607C26.4773 34.9718 29.0273 34.9718 30.8218 33.4607C31.294 32.9885 32.0495 32.7052 32.7107 32.7052C33.3718 32.7052 34.0329 32.9885 34.5051 33.4607C35.3551 34.1218 36.2995 34.4996 37.3384 34.5941V32.7052C36.394 32.7052 36.2051 32.3274 35.7329 31.9496C34.8829 31.2885 33.844 30.9107 32.7107 30.9107Z" fill="white"/>
<path id="Vector_2" d="M10.8941 27.0385C10.8941 26.4719 11.3663 26.0941 11.9329 26.0941H35.4496L32.1441 29.0219H32.3329C33.0885 29.0219 33.8441 29.2108 34.4107 29.4941L36.7718 27.4163L36.9607 27.2274C37.6218 26.4719 37.5274 25.2441 36.7718 24.583C36.3941 24.3941 36.0163 24.2052 35.5441 24.2052H11.9329C10.3274 24.2052 9.09961 25.433 9.09961 27.0385V30.0608C9.57183 29.5885 10.2329 29.3052 10.8941 29.0219V27.0385Z" fill="white"/>
<path id="Vector_3" d="M13.6327 23.2607H19.3938V15.894C19.3938 15.3273 19.1105 14.7607 18.6383 14.3829C17.7883 13.7218 16.5605 13.9107 15.9938 14.7607L12.1216 20.3329C11.7438 20.8996 11.7438 21.6551 12.0272 22.3162C12.3105 22.8829 12.9716 23.2607 13.6327 23.2607ZM17.5994 15.894L17.5049 21.3718H13.6327L17.5994 15.894Z" fill="white"/>
<path id="Vector_4" d="M29.7828 22.3162C30.1606 21.7495 30.1606 20.994 29.7828 20.4273L23.8328 10.6051C23.455 10.0384 22.8884 9.66064 22.2273 9.66064C21.1884 9.66064 20.3384 10.5106 20.3384 11.5495V23.2606H28.1773C28.8384 23.2606 29.4995 22.8829 29.7828 22.3162ZM22.1328 11.5495L28.1773 21.4662H22.1328V11.5495Z" fill="white"/>
</g>
</g>
</svg>
