<svg width="46" height="46" viewBox="0 0 46 46" fill="none" xmlns="http://www.w3.org/2000/svg">
<circle cx="22.9546" cy="22.8617" r="22.5455" fill="#1F1D1C"/>
<path d="M14.0749 12.1161C11.9481 15.2637 9.90296 16.1647 8.50024 15.6002C8.87862 16.8775 11.5962 18.6489 13.3272 19.6683C14.0728 20.1073 14.2909 21.1073 13.7717 21.7999C12.822 23.0681 11.5071 24.8604 11.2876 25.3558C6.37771 34.2682 17.198 37.6534 22.4368 37.2019C37.8673 35.8723 37.3175 23.8249 34.9797 19.0844C29.3688 28.8358 20.7079 23.2061 21.0431 21.1749C21.3783 19.1436 23.6855 19.5478 24.5273 16.2971C25.93 9.86397 17.1228 6.81954 14.0749 12.1161Z" stroke="white" stroke-width="2.18182" stroke-linecap="round" stroke-linejoin="round"/>
<path d="M19.5891 27.7794C21.3312 30.2183 26.5574 32.6572 30.7383 29.1731" stroke="white" stroke-width="2.18182" stroke-linecap="round" stroke-linejoin="round"/>
<path d="M18.1954 15.9333C18.9651 15.9333 19.5891 15.3093 19.5891 14.5396C19.5891 13.77 18.9651 13.146 18.1954 13.146C17.4257 13.146 16.8018 13.77 16.8018 14.5396C16.8018 15.3093 17.4257 15.9333 18.1954 15.9333Z" fill="white"/>
</svg>
