<svg width="26" height="28" viewBox="0 0 26 28" fill="none" xmlns="http://www.w3.org/2000/svg">
<path id="Vector" d="M8.45454 3.1612C8.0527 3.1612 7.66731 3.32434 7.38317 3.61472C7.09902 3.9051 6.93939 4.29894 6.93939 4.7096C6.93939 5.12026 7.09902 5.5141 7.38317 5.80449C7.66731 6.09487 8.0527 6.258 8.45454 6.258C8.85639 6.258 9.24177 6.09487 9.52592 5.80449C9.81006 5.5141 9.96969 5.12026 9.96969 4.7096C9.96969 4.29894 9.81006 3.9051 9.52592 3.61472C9.24177 3.32434 8.85639 3.1612 8.45454 3.1612ZM4.16666 3.1612C4.4797 2.25456 5.06021 1.46947 5.82818 0.914148C6.59615 0.358823 7.51376 0.0606079 8.45454 0.0606079C9.39532 0.0606079 10.3129 0.358823 11.0809 0.914148C11.8489 1.46947 12.4294 2.25456 12.7424 3.1612H23.6061C24.0079 3.1612 24.3933 3.32434 24.6774 3.61472C24.9616 3.9051 25.1212 4.29894 25.1212 4.7096C25.1212 5.12026 24.9616 5.5141 24.6774 5.80449C24.3933 6.09487 24.0079 6.258 23.6061 6.258H12.7424C12.4294 7.16464 11.8489 7.94973 11.0809 8.50506C10.3129 9.06038 9.39532 9.3586 8.45454 9.3586C7.51376 9.3586 6.59615 9.06038 5.82818 8.50506C5.06021 7.94973 4.4797 7.16464 4.16666 6.258H2.39394C1.99209 6.258 1.60671 6.09487 1.32256 5.80449C1.03842 5.5141 0.878784 5.12026 0.878784 4.7096C0.878784 4.29894 1.03842 3.9051 1.32256 3.61472C1.60671 3.32434 1.99209 3.1612 2.39394 3.1612H4.16666ZM17.5455 12.4516C17.1436 12.4516 16.7582 12.6147 16.4741 12.9051C16.1899 13.1955 16.0303 13.5893 16.0303 14C16.0303 14.4107 16.1899 14.8045 16.4741 15.0949C16.7582 15.3853 17.1436 15.5484 17.5455 15.5484C17.9473 15.5484 18.3327 15.3853 18.6168 15.0949C18.901 14.8045 19.0606 14.4107 19.0606 14C19.0606 13.5893 18.901 13.1955 18.6168 12.9051C18.3327 12.6147 17.9473 12.4516 17.5455 12.4516ZM13.2576 12.4516C13.5706 11.545 14.1511 10.7599 14.9191 10.2045C15.6871 9.64922 16.6047 9.35101 17.5455 9.35101C18.4862 9.35101 19.4038 9.64922 20.1718 10.2045C20.9398 10.7599 21.5203 11.545 21.8333 12.4516H23.6061C24.0079 12.4516 24.3933 12.6147 24.6774 12.9051C24.9616 13.1955 25.1212 13.5893 25.1212 14C25.1212 14.4107 24.9616 14.8045 24.6774 15.0949C24.3933 15.3853 24.0079 15.5484 23.6061 15.5484H21.8333C21.5203 16.455 20.9398 17.2401 20.1718 17.7955C19.4038 18.3508 18.4862 18.649 17.5455 18.649C16.6047 18.649 15.6871 18.3508 14.9191 17.7955C14.1511 17.2401 13.5706 16.455 13.2576 15.5484H2.39394C1.99209 15.5484 1.60671 15.3853 1.32256 15.0949C1.03842 14.8045 0.878784 14.4107 0.878784 14C0.878784 13.5893 1.03842 13.1955 1.32256 12.9051C1.60671 12.6147 1.99209 12.4516 2.39394 12.4516H13.2576ZM8.45454 21.742C8.0527 21.742 7.66731 21.9051 7.38317 22.1955C7.09902 22.4859 6.93939 22.8797 6.93939 23.2904C6.93939 23.7011 7.09902 24.0949 7.38317 24.3853C7.66731 24.6757 8.0527 24.8388 8.45454 24.8388C8.85639 24.8388 9.24177 24.6757 9.52592 24.3853C9.81006 24.0949 9.96969 23.7011 9.96969 23.2904C9.96969 22.8797 9.81006 22.4859 9.52592 22.1955C9.24177 21.9051 8.85639 21.742 8.45454 21.742ZM4.16666 21.742C4.4797 20.8354 5.06021 20.0503 5.82818 19.4949C6.59615 18.9396 7.51376 18.6414 8.45454 18.6414C9.39532 18.6414 10.3129 18.9396 11.0809 19.4949C11.8489 20.0503 12.4294 20.8354 12.7424 21.742H23.6061C24.0079 21.742 24.3933 21.9051 24.6774 22.1955C24.9616 22.4859 25.1212 22.8797 25.1212 23.2904C25.1212 23.7011 24.9616 24.0949 24.6774 24.3853C24.3933 24.6757 24.0079 24.8388 23.6061 24.8388H12.7424C12.4294 25.7454 11.8489 26.5305 11.0809 27.0859C10.3129 27.6412 9.39532 27.9394 8.45454 27.9394C7.51376 27.9394 6.59615 27.6412 5.82818 27.0859C5.06021 26.5305 4.4797 25.7454 4.16666 24.8388H2.39394C1.99209 24.8388 1.60671 24.6757 1.32256 24.3853C1.03842 24.0949 0.878784 23.7011 0.878784 23.2904C0.878784 22.8797 1.03842 22.4859 1.32256 22.1955C1.60671 21.9051 1.99209 21.742 2.39394 21.742H4.16666Z" fill="white"/>
</svg>
