<svg width="46" height="47" viewBox="0 0 46 47" fill="none" xmlns="http://www.w3.org/2000/svg">
<g id="Fishing">
<circle id="Ellipse 1" cx="23.0909" cy="23.4727" r="22.5455" fill="#1F1D1C"/>
<path id="Vector" d="M28.9091 16.1999C29.6806 16.1999 30.4206 15.8934 30.9661 15.3478C31.5117 14.8023 31.8182 14.0623 31.8182 13.2908C31.8182 12.5193 31.5117 11.7793 30.9661 11.2338C30.4206 10.6882 29.6806 10.3817 28.9091 10.3817C28.1376 10.3817 27.3976 10.6882 26.8521 11.2338C26.3065 11.7793 26 12.5193 26 13.2908C26 14.0623 26.3065 14.8023 26.8521 15.3478C27.3976 15.8934 28.1376 16.1999 28.9091 16.1999ZM28.9091 16.1999V30.7453C28.9091 39.4726 14.3636 39.4726 14.3636 30.7453V24.9272L17.2727 27.8363" stroke="white" stroke-width="2.18182" stroke-linecap="round" stroke-linejoin="round"/>
</g>
</svg>
