<svg width="46" height="46" viewBox="0 0 46 46" fill="none" xmlns="http://www.w3.org/2000/svg">
<g id="Football">
<circle id="Ellipse 2" cx="22.6817" cy="22.8617" r="22.5455" fill="#1F1D1C"/>
<path id="Vector" d="M23.1362 7.31628C14.3139 7.31628 7.13623 14.494 7.13623 23.3163C7.13623 32.1386 14.3139 39.3163 23.1362 39.3163C31.9585 39.3163 39.1362 32.1386 39.1362 23.3163C39.1362 14.494 31.9585 7.31628 23.1362 7.31628ZM34.1362 30.7009H30.6578C30.55 30.7007 30.4442 30.6721 30.3509 30.6181C30.2576 30.5641 30.1801 30.4866 30.1262 30.3932L28.8847 28.264C28.803 28.1248 28.7792 27.959 28.8185 27.8024L29.9616 23.1932C29.9846 23.1003 30.0288 23.0141 30.0909 22.9413C30.153 22.8685 30.2312 22.8112 30.3193 22.774L32.4808 21.8586C32.5865 21.8138 32.7025 21.7994 32.8159 21.8171C32.9292 21.8348 33.0354 21.8838 33.1224 21.9586L36.3247 24.714C36.4036 24.7819 36.464 24.8688 36.5002 24.9665C36.5364 25.0642 36.5472 25.1694 36.5316 25.2724C36.2664 27.0919 35.6307 28.8377 34.6639 30.4017C34.6093 30.4929 34.532 30.5684 34.4395 30.6208C34.347 30.6733 34.2425 30.7009 34.1362 30.7009ZM13.7916 21.8647L15.9532 22.7801C16.0413 22.8174 16.1195 22.8747 16.1816 22.9475C16.2436 23.0202 16.2879 23.1065 16.3108 23.1994L17.4539 27.8086C17.4933 27.9652 17.4695 28.1309 17.3878 28.2701L16.1462 30.3932C16.0923 30.4866 16.0149 30.5641 15.9216 30.6181C15.8283 30.6721 15.7225 30.7007 15.6147 30.7009H12.1362C12.031 30.701 11.9276 30.6741 11.8357 30.6228C11.7439 30.5714 11.6667 30.4974 11.6116 30.4078C10.6448 28.8438 10.0091 27.0981 9.74392 25.2786C9.72833 25.1756 9.73914 25.0703 9.77533 24.9727C9.81152 24.875 9.87191 24.7881 9.95085 24.7201L13.1532 21.9647C13.2398 21.8905 13.3455 21.8419 13.4582 21.8242C13.571 21.8065 13.6864 21.8206 13.7916 21.8647ZM33.5562 15.154L32.1662 19.1063C32.1383 19.1871 32.0938 19.2611 32.0357 19.3238C31.9776 19.3864 31.907 19.4363 31.8285 19.4701L29.5532 20.434C29.4487 20.4782 29.3341 20.4926 29.222 20.4758C29.1099 20.459 29.0046 20.4115 28.9178 20.3386L24.5901 16.7086C24.5209 16.6514 24.4651 16.5797 24.4266 16.4987C24.3881 16.4176 24.3677 16.3291 24.367 16.2394V13.6563C24.3671 13.5551 24.3921 13.4554 24.4398 13.3662C24.4876 13.277 24.5567 13.2009 24.6408 13.1447L27.9355 10.9494C28.0214 10.892 28.1205 10.8572 28.2235 10.8482C28.3265 10.8392 28.4301 10.8562 28.5247 10.8978C30.4204 11.7246 32.1028 12.9726 33.4439 14.5471C33.5144 14.6294 33.562 14.7288 33.5817 14.8354C33.6014 14.942 33.5926 15.0519 33.5562 15.154ZM18.3362 10.9494L21.6316 13.1447C21.7158 13.2009 21.7848 13.277 21.8326 13.3662C21.8804 13.4554 21.9054 13.5551 21.9055 13.6563V16.2394C21.9055 16.3293 21.8858 16.4181 21.8478 16.4995C21.8097 16.581 21.7543 16.6531 21.6855 16.7109L17.3578 20.3409C17.2709 20.4138 17.1656 20.4613 17.0535 20.4781C16.9414 20.4949 16.8268 20.4805 16.7224 20.4363L14.4439 19.4701C14.365 19.4367 14.2939 19.3871 14.2352 19.3246C14.1765 19.2621 14.1315 19.188 14.1032 19.1071L12.7132 15.1547C12.677 15.0523 12.6687 14.9421 12.6889 14.8353C12.7092 14.7286 12.7574 14.6291 12.8285 14.5471C14.1704 12.971 15.8542 11.7219 17.7516 10.8947C17.8459 10.8544 17.9488 10.8383 18.0509 10.8478C18.153 10.8574 18.2511 10.8923 18.3362 10.9494ZM19.6678 36.1386L18.1501 32.3163C18.1154 32.2294 18.1009 32.1357 18.1079 32.0424C18.1148 31.9491 18.1429 31.8586 18.1901 31.7778L19.357 29.7778C19.4109 29.6845 19.4884 29.6069 19.5816 29.5529C19.6749 29.4989 19.7808 29.4704 19.8885 29.4701H26.3839C26.4917 29.4704 26.5975 29.4989 26.6908 29.5529C26.7841 29.6069 26.8616 29.6845 26.9155 29.7778L28.0832 31.7778C28.1304 31.8586 28.1587 31.949 28.1658 32.0423C28.1728 32.1356 28.1585 32.2293 28.1239 32.3163L26.617 36.1371C26.5801 36.2305 26.521 36.3134 26.4447 36.3787C26.3684 36.444 26.2773 36.4897 26.1793 36.5117C24.1797 36.9706 22.102 36.9706 20.1024 36.5117C20.0051 36.4894 19.9147 36.4438 19.839 36.3788C19.7633 36.3138 19.7045 36.2314 19.6678 36.1386Z" fill="white"/>
</g>
</svg>
