<svg width="51" height="51" viewBox="0 0 51 51" fill="none" xmlns="http://www.w3.org/2000/svg">
<ellipse cx="24.9267" cy="24.9286" rx="24.9267" ry="24.9286" transform="matrix(-1 0 0 1 50.514 0.165619)" fill="#1F1D1C"/>
<path d="M12.7463 25.2198L22.8201 15.1453C23.0188 14.9465 23.2547 14.7889 23.5143 14.6814C23.7739 14.5738 24.0522 14.5185 24.3332 14.5185C24.6142 14.5185 24.8924 14.5738 25.152 14.6814C25.4117 14.7889 25.6476 14.9465 25.8463 15.1453C26.045 15.344 26.2026 15.5799 26.3101 15.8395C26.4177 16.0992 26.473 16.3774 26.473 16.6585C26.473 16.9395 26.4177 17.2178 26.3101 17.4774C26.2026 17.7371 26.045 17.973 25.8463 18.1717L20.9388 23.0795L37.1742 23.0795C37.7418 23.0795 38.2862 23.305 38.6875 23.7064C39.0889 24.1078 39.3144 24.6522 39.3144 25.2198C39.3144 25.7875 39.0889 26.3319 38.6875 26.7333C38.2862 27.1347 37.7418 27.3602 37.1742 27.3602L20.9388 27.3602L25.8463 32.268C26.0457 32.4663 26.204 32.7021 26.312 32.9618C26.42 33.2215 26.4755 33.4999 26.4755 33.7812C26.4755 34.0625 26.42 34.3409 26.312 34.6006C26.204 34.8603 26.0457 35.0961 25.8463 35.2944C25.4449 35.6957 24.9007 35.9211 24.3332 35.9211C23.7657 35.9211 23.2214 35.6957 22.8201 35.2944L12.7463 25.2198Z" fill="white"/>
</svg>
