<svg width="33" height="37" viewBox="0 0 33 37" fill="none" xmlns="http://www.w3.org/2000/svg">
<g id="Vector">
<path id="Vector_2" d="M16.6595 0.351074C20.9739 0.351074 25.1116 2.05078 28.1624 5.07627C31.2131 8.10177 32.927 12.2052 32.927 16.4839C32.927 21.9942 29.8976 26.5042 26.7056 29.7397C25.1108 31.3388 23.3706 32.7885 21.5072 34.0705L20.7372 34.5903L20.3757 34.8287L19.6943 35.259L19.087 35.6264L18.3351 36.0602C17.8247 36.3491 17.2472 36.5011 16.6595 36.5011C16.0718 36.5011 15.4943 36.3491 14.9839 36.0602L14.232 35.6264L13.2921 35.0528L12.9451 34.8287L12.204 34.3394C10.1938 32.9905 8.32133 31.45 6.61341 29.7397C3.42137 26.5024 0.391998 21.9942 0.391998 16.4839C0.391998 12.2052 2.10589 8.10177 5.15664 5.07627C8.20739 2.05078 12.3451 0.351074 16.6595 0.351074ZM16.6595 11.1063C15.9474 11.1063 15.2423 11.2454 14.5844 11.5156C13.9265 11.7859 13.3287 12.182 12.8252 12.6814C12.3217 13.1807 11.9223 13.7735 11.6498 14.426C11.3773 15.0784 11.237 15.7777 11.237 16.4839C11.237 17.1901 11.3773 17.8894 11.6498 18.5418C11.9223 19.1943 12.3217 19.7871 12.8252 20.2865C13.3287 20.7858 13.9265 21.1819 14.5844 21.4522C15.2423 21.7224 15.9474 21.8615 16.6595 21.8615C18.0976 21.8615 19.4769 21.295 20.4938 20.2865C21.5107 19.278 22.082 17.9101 22.082 16.4839C22.082 15.0577 21.5107 13.6899 20.4938 12.6814C19.4769 11.6729 18.0976 11.1063 16.6595 11.1063Z" fill="#CD6364"/>
</g>
</svg>
