<svg width="51" height="51" viewBox="0 0 51 51" fill="none" xmlns="http://www.w3.org/2000/svg">
<ellipse cx="25.902" cy="25.0943" rx="24.9267" ry="24.9286" fill="#1F1D1C"/>
<path d="M38.743 25.2198L28.6693 15.1453C28.4706 14.9465 28.2347 14.7889 27.9751 14.6814C27.7154 14.5738 27.4372 14.5185 27.1562 14.5185C26.8752 14.5185 26.5969 14.5738 26.3373 14.6814C26.0777 14.7889 25.8418 14.9465 25.6431 15.1453C25.4444 15.344 25.2867 15.5799 25.1792 15.8395C25.0717 16.0992 25.0163 16.3774 25.0163 16.6585C25.0163 16.9395 25.0717 17.2178 25.1792 17.4774C25.2867 17.7371 25.4444 17.973 25.6431 18.1717L30.5505 23.0795L14.3152 23.0795C13.7475 23.0795 13.2032 23.305 12.8018 23.7064C12.4005 24.1078 12.175 24.6522 12.175 25.2198C12.175 25.7875 12.4005 26.3319 12.8018 26.7333C13.2032 27.1347 13.7475 27.3602 14.3152 27.3602L30.5505 27.3602L25.6431 32.268C25.4436 32.4663 25.2854 32.7021 25.1774 32.9618C25.0694 33.2215 25.0138 33.4999 25.0138 33.7812C25.0138 34.0625 25.0694 34.3409 25.1774 34.6006C25.2854 34.8603 25.4436 35.0961 25.6431 35.2944C26.0444 35.6957 26.5887 35.9211 27.1562 35.9211C27.7237 35.9211 28.2679 35.6957 28.6693 35.2944L38.743 25.2198Z" fill="white"/>
</svg>
