<svg width="46" height="46" viewBox="0 0 46 46" fill="none" xmlns="http://www.w3.org/2000/svg">
<circle cx="22.8636" cy="22.8617" r="22.5455" fill="#1F1D1C"/>
<path d="M14.3333 11.4072C13.0407 11.4072 12 12.433 12 13.7071C12 14.9812 13.0407 16.0069 14.3333 16.0069H17.3597L15.8547 20.6066H10.8333C9.54067 20.6066 8.5 21.6323 8.5 22.9064C8.5 24.1805 9.54067 25.2062 10.8333 25.2062H14.3567L12.0957 32.1287C12.0214 32.3449 11.9913 32.5734 12.0072 32.801C12.0231 33.0286 12.0847 33.2509 12.1884 33.4549C12.2921 33.659 12.4359 33.8407 12.6113 33.9895C12.7868 34.1384 12.9904 34.2515 13.2105 34.3222C13.4306 34.393 13.6628 34.42 13.8936 34.4017C14.1243 34.3833 14.3491 34.3201 14.5549 34.2155C14.7607 34.111 14.9434 33.9672 15.0924 33.7926C15.2414 33.6179 15.3538 33.4159 15.423 33.1982L15.4277 33.189L18.034 25.2062H26.966L29.5723 33.1867C29.7147 33.6222 30.0267 33.9841 30.4398 34.1929C30.8529 34.4016 31.3331 34.4401 31.775 34.2998C32.2169 34.1595 32.5841 33.8519 32.7959 33.4448C33.0076 33.0376 33.0467 32.5642 32.9043 32.1287L30.6433 25.2062H34.1667C35.4593 25.2062 36.5 24.1805 36.5 22.9064C36.5 21.6323 35.4593 20.6066 34.1667 20.6066H29.1453L27.6403 16.0069H30.6667C31.9593 16.0069 33 14.9812 33 13.7071C33 12.433 31.9593 11.4072 30.6667 11.4072H14.3333ZM21.037 16.0069H23.963L25.468 20.6066H19.5343L21.037 16.0069Z" fill="white"/>
</svg>
