<svg width="17" height="21" viewBox="0 0 17 21" fill="none" xmlns="http://www.w3.org/2000/svg">
<path d="M1.17681 9.45717C0.909697 9.18998 0.759643 8.82764 0.759643 8.44983C0.759643 8.07202 0.909697 7.70968 1.17681 7.44249L7.58843 1.03087C7.85562 0.763765 8.21796 0.613711 8.59576 0.613711C8.97357 0.613711 9.33591 0.763765 9.6031 1.03087L16.0147 7.44249C16.2743 7.71122 16.4179 8.07112 16.4146 8.4447C16.4114 8.81828 16.2615 9.17564 15.9974 9.43981C15.7332 9.70398 15.3758 9.85383 15.0023 9.85707C14.6287 9.86032 14.2688 9.71671 14 9.45717L10.0206 5.60022L10.0206 19.1359C10.0206 19.5137 9.87045 19.8762 9.60325 20.1434C9.33605 20.4106 8.97365 20.5607 8.59576 20.5607C8.21788 20.5607 7.85548 20.4106 7.58828 20.1434C7.32107 19.8762 7.17096 19.5137 7.17096 19.1359L7.17096 5.60022L3.19148 9.45717C2.92429 9.72428 2.56195 9.87433 2.18414 9.87433C1.80634 9.87433 1.444 9.72428 1.17681 9.45717Z" fill="#585656"/>
</svg>
