<svg width="24" height="21" viewBox="0 0 24 21" fill="none" xmlns="http://www.w3.org/2000/svg">
<path d="M23.2494 0.679155C23.4874 0.894127 23.6761 1.14941 23.8049 1.43041C23.9337 1.71141 24 2.01262 24 2.3168C24 2.62099 23.9337 2.92219 23.8049 3.20319C23.6761 3.48419 23.4874 3.73948 23.2494 3.95445L15.6181 10.8546L22.4663 17.0464C22.9465 17.4807 23.2163 18.0698 23.2163 18.684C23.2163 19.2983 22.9465 19.8873 22.4663 20.3217C21.9862 20.756 21.3349 21 20.6558 21C19.9767 21 19.3254 20.756 18.8452 20.3217L11.9995 14.1275L5.15385 20.3217C4.67365 20.756 4.02237 21 3.34327 21C2.66417 21 2.01288 20.756 1.53269 20.3217C1.05249 19.8873 0.782718 19.2983 0.782718 18.684C0.782718 18.0698 1.05249 17.4807 1.53269 17.0464L8.38091 10.8546L0.749593 3.95445C0.511824 3.73924 0.323248 3.48378 0.194632 3.20265C0.0660169 2.92152 -0.000118653 2.62023 1.59802e-07 2.31598C0.000118973 2.01174 0.0664904 1.71049 0.195325 1.42944C0.32416 1.1484 0.512935 0.893056 0.750872 0.677997C0.988809 0.462938 1.27125 0.292374 1.58206 0.176043C1.89288 0.0597125 2.22598 -0.00010733 2.56236 1.44563e-07C2.89873 0.000107619 3.23179 0.0601408 3.54252 0.17667C3.85324 0.2932 4.13555 0.463944 4.37332 0.679155L11.9995 7.58389L19.6283 0.681469C19.8659 0.466257 20.1482 0.295528 20.4589 0.179042C20.7695 0.0625567 21.1025 0.00260054 21.4389 0.00260054C21.7752 0.00260054 22.1082 0.0625567 22.4188 0.179042C22.7295 0.295528 23.0118 0.463942 23.2494 0.679155Z" fill="white"/>
</svg>
