<svg width="13" height="12" viewBox="0 0 13 12" fill="none" xmlns="http://www.w3.org/2000/svg">
<g id="Vector">
<path d="M11.9756 0.360094C12.0981 0.474075 12.1953 0.609428 12.2617 0.758417C12.328 0.907405 12.3622 1.06711 12.3622 1.22839C12.3622 1.38967 12.328 1.54937 12.2617 1.69836C12.1953 1.84735 12.0981 1.9827 11.9756 2.09668L8.04474 5.75518L11.5722 9.03814C11.8195 9.26843 11.9585 9.58076 11.9585 9.90644C11.9585 10.2321 11.8195 10.5444 11.5722 10.7747C11.3249 11.005 10.9894 11.1344 10.6396 11.1344C10.2898 11.1344 9.95432 11.005 9.70697 10.7747L6.18083 7.49055L2.6547 10.7747C2.40735 11.005 2.07188 11.1344 1.72209 11.1344C1.37229 11.1344 1.03682 11.005 0.789472 10.7747C0.542127 10.5444 0.40317 10.2321 0.40317 9.90644C0.40317 9.58076 0.542127 9.26843 0.789472 9.03814L4.31693 5.75518L0.386108 2.09668C0.263636 1.98258 0.166502 1.84713 0.100253 1.69807C0.0340046 1.54902 -6.1117e-05 1.38927 0 1.22796C6.12817e-05 1.06664 0.0342486 0.906917 0.10061 0.757904C0.166972 0.608891 0.264208 0.473506 0.386767 0.35948C0.509326 0.245454 0.654808 0.155019 0.814906 0.0933398C0.975004 0.0316601 1.14658 -5.69074e-05 1.31985 0C1.49311 5.70607e-05 1.66467 0.0318872 1.82472 0.0936722C1.98477 0.155457 2.13018 0.245987 2.25265 0.360094L6.18083 4.02105L10.1103 0.361321C10.2328 0.247214 10.3781 0.156691 10.5382 0.0949298C10.6982 0.0331682 10.8697 0.00137883 11.0429 0.00137883C11.2162 0.00137883 11.3877 0.0331682 11.5477 0.0949298C11.7078 0.156691 11.8531 0.245986 11.9756 0.360094Z" fill="black"/>
<path d="M11.9756 0.360094C12.0981 0.474075 12.1953 0.609428 12.2617 0.758417C12.328 0.907405 12.3622 1.06711 12.3622 1.22839C12.3622 1.38967 12.328 1.54937 12.2617 1.69836C12.1953 1.84735 12.0981 1.9827 11.9756 2.09668L8.04474 5.75518L11.5722 9.03814C11.8195 9.26843 11.9585 9.58076 11.9585 9.90644C11.9585 10.2321 11.8195 10.5444 11.5722 10.7747C11.3249 11.005 10.9894 11.1344 10.6396 11.1344C10.2898 11.1344 9.95432 11.005 9.70697 10.7747L6.18083 7.49055L2.6547 10.7747C2.40735 11.005 2.07188 11.1344 1.72209 11.1344C1.37229 11.1344 1.03682 11.005 0.789472 10.7747C0.542127 10.5444 0.40317 10.2321 0.40317 9.90644C0.40317 9.58076 0.542127 9.26843 0.789472 9.03814L4.31693 5.75518L0.386108 2.09668C0.263636 1.98258 0.166502 1.84713 0.100253 1.69807C0.0340046 1.54902 -6.1117e-05 1.38927 0 1.22796C6.12817e-05 1.06664 0.0342486 0.906917 0.10061 0.757904C0.166972 0.608891 0.264208 0.473506 0.386767 0.35948C0.509326 0.245454 0.654808 0.155019 0.814906 0.0933398C0.975004 0.0316601 1.14658 -5.69074e-05 1.31985 0C1.49311 5.70607e-05 1.66467 0.0318872 1.82472 0.0936722C1.98477 0.155457 2.13018 0.245987 2.25265 0.360094L6.18083 4.02105L10.1103 0.361321C10.2328 0.247214 10.3781 0.156691 10.5382 0.0949298C10.6982 0.0331682 10.8697 0.00137883 11.0429 0.00137883C11.2162 0.00137883 11.3877 0.0331682 11.5477 0.0949298C11.7078 0.156691 11.8531 0.245986 11.9756 0.360094Z" stroke="black"/>
</g>
</svg>
